<?xml version="1.0" encoding="UTF-8"?>
<svg xmlns="http://www.w3.org/2000/svg" viewBox="0 0 31.87 52.11">
  <defs>
    <style>.cls-1{fill:#f36c21;}</style>
  </defs>
  <g id="Layer_2" data-name="Layer 2">
    <g id="Layer_1-2" data-name="Layer 1">
      <path class="cls-1" d="M13.82,21a1.45,1.45,0,0,0,.94.34,1.39,1.39,0,0,0,1.06-.5L31.53,2.33A1.41,1.41,0,0,0,31.74.82,1.43,1.43,0,0,0,30.45,0h-19a1.43,1.43,0,0,0-1.33.92L.09,27.7A1.43,1.43,0,0,0,.25,29a1.41,1.41,0,0,0,1.17.61H7.83L.3,50.2a1.41,1.41,0,0,0,.61,1.71,1.33,1.33,0,0,0,.72.2,1.42,1.42,0,0,0,1.07-.49L31,19.11a1.41,1.41,0,0,0,.23-1.52,1.43,1.43,0,0,0-1.29-.83H23L20.6,19.6h6.22L5.59,44l5.6-15.3a1.4,1.4,0,0,0-.17-1.3,1.43,1.43,0,0,0-1.16-.6H3.46l9-24h15L13.66,19a1.41,1.41,0,0,0,.16,2"></path>
    </g>
  </g>
</svg>
